<svg width="19" height="19" viewBox="0 0 19 19" fill="none" xmlns="http://www.w3.org/2000/svg">
<path d="M12.2378 3.03937L5.46531 5.28937C0.912809 6.81187 0.912809 9.29437 5.46531 10.8094L7.47531 11.4769L8.14281 13.4869C9.65781 18.0394 12.1478 18.0394 13.6628 13.4869L15.9203 6.72187C16.9253 3.68437 15.2753 2.02687 12.2378 3.03937ZM12.4778 7.07437L9.62781 9.93937C9.51531 10.0519 9.37281 10.1044 9.23031 10.1044C9.08781 10.1044 8.94531 10.0519 8.83281 9.93937C8.61531 9.72187 8.61531 9.36187 8.83281 9.14437L11.6828 6.27937C11.9003 6.06187 12.2603 6.06187 12.4778 6.27937C12.6953 6.49687 12.6953 6.85687 12.4778 7.07437Z" fill="#DD9F00"/>
</svg>
