<svg width="24" height="24" viewBox="0 0 24 24" fill="none" xmlns="http://www.w3.org/2000/svg">
<path fill-rule="evenodd" clip-rule="evenodd" d="M2.37351 6.81723C3.25892 5.76457 4.77693 5.25 6.99997 5.25H17C19.223 5.25 20.741 5.76457 21.6264 6.81723C22.5032 7.85966 22.5866 9.22916 22.4461 10.5061L21.6958 18.5099C21.5856 19.538 21.3275 20.6651 20.4096 21.5037C19.4984 22.3361 18.0868 22.75 16 22.75H7.99997C5.91312 22.75 4.5015 22.3361 3.59036 21.5037C2.67242 20.6651 2.41439 19.538 2.30424 18.5099L2.30318 18.5L1.55382 10.5061C1.41329 9.22917 1.49669 7.85967 2.37351 6.81723ZM3.52143 7.78277C3.0497 8.3436 2.91692 9.18629 3.04542 10.3475L3.0468 10.36L3.79622 18.3549C3.89627 19.2843 4.10339 19.9407 4.60208 20.3963C5.10844 20.8589 6.06682 21.25 7.99997 21.25H16C17.9331 21.25 18.8915 20.8589 19.3979 20.3963C19.8966 19.9407 20.1037 19.2843 20.2037 18.3549L20.9544 10.3475C21.0829 9.18628 20.9502 8.3436 20.4785 7.78277C20.0139 7.23043 19.0469 6.75 17 6.75H6.99997C4.95301 6.75 3.98602 7.23043 3.52143 7.78277Z" fill="#7F879E"/>
<path fill-rule="evenodd" clip-rule="evenodd" d="M8.79369 4.05038C8.75121 4.37577 8.75 4.74554 8.75 5.2V6C8.75 6.41421 8.41422 6.75 8 6.75C7.58579 6.75 7.25 6.41421 7.25 6L7.25 5.17401C7.24998 4.75048 7.24995 4.28789 7.30631 3.85619C7.36471 3.40889 7.48985 2.93401 7.78302 2.50983C8.39976 1.61749 9.52951 1.25 11.2 1.25H12.8C14.4705 1.25 15.6002 1.61749 16.217 2.50983C16.5102 2.93401 16.6353 3.40889 16.6937 3.85619C16.7501 4.28789 16.75 4.75049 16.75 5.17402L16.75 6C16.75 6.41421 16.4142 6.75 16 6.75C15.5858 6.75 15.25 6.41421 15.25 6V5.2C15.25 4.74554 15.2488 4.37577 15.2063 4.05038C15.1647 3.73174 15.0899 3.51724 14.983 3.36267C14.7998 3.09751 14.3295 2.75 12.8 2.75H11.2C9.67049 2.75 9.20025 3.09751 9.01698 3.36267C8.91015 3.51724 8.83529 3.73174 8.79369 4.05038Z" fill="#7F879E"/>
<path fill-rule="evenodd" clip-rule="evenodd" d="M10.7508 12.7508C10.75 12.8222 10.75 12.9036 10.75 13V14.03C10.75 14.3115 10.7525 14.5186 10.7769 14.6943C10.8004 14.8632 10.8378 14.9454 10.8694 14.9901C10.9047 15.0399 11.0806 15.25 12 15.25C12.9236 15.25 13.0974 15.0378 13.1319 14.9885C13.1638 14.9431 13.201 14.8596 13.2241 14.6887C13.2482 14.511 13.25 14.3029 13.25 14.02V13C13.25 12.9036 13.25 12.8222 13.2492 12.7508C13.1778 12.75 13.0965 12.75 13 12.75H11C10.9036 12.75 10.8222 12.75 10.7508 12.7508ZM10.9672 11.25C10.9781 11.25 10.9891 11.25 11 11.25H13C13.0109 11.25 13.0219 11.25 13.0329 11.25C13.254 11.25 13.4781 11.2499 13.661 11.2702C13.8474 11.2909 14.157 11.3463 14.4053 11.5947C14.6537 11.843 14.7091 12.1527 14.7298 12.3391C14.7501 12.5219 14.7501 12.746 14.75 12.9672C14.75 12.9781 14.75 12.9891 14.75 13V14.0312C14.75 14.291 14.75 14.5983 14.7106 14.8898C14.6696 15.1923 14.58 15.5357 14.3606 15.849C13.8926 16.5172 13.0664 16.75 12 16.75C10.9394 16.75 10.1153 16.5202 9.64562 15.8575C9.42476 15.5458 9.33335 15.2037 9.29123 14.901C9.25005 14.6052 9.25001 14.2935 9.25001 14.03V13C9.25001 12.9891 9.25001 12.9781 9.25 12.9672C9.24995 12.746 9.2499 12.5219 9.27022 12.3391C9.29093 12.1527 9.34631 11.843 9.59468 11.5947C9.84305 11.3463 10.1527 11.2909 10.3391 11.2702C10.5219 11.2499 10.746 11.25 10.9672 11.25Z" fill="#7F879E"/>
<path fill-rule="evenodd" clip-rule="evenodd" d="M22.2566 10.5589C22.5002 10.8939 22.4261 11.363 22.0911 11.6066C19.675 13.3638 16.9145 14.409 14.0937 14.7642C13.6828 14.8159 13.3076 14.5247 13.2559 14.1138C13.2041 13.7028 13.4953 13.3277 13.9063 13.2759C16.4855 12.9511 19.005 11.9963 21.2089 10.3935C21.5439 10.1499 22.0129 10.2239 22.2566 10.5589Z" fill="#7F879E"/>
<path fill-rule="evenodd" clip-rule="evenodd" d="M2.00109 10.8465C2.23505 10.5047 2.7018 10.4172 3.04362 10.6512C5.19251 12.122 7.61575 13.0084 10.0835 13.2847C10.4951 13.3308 10.7914 13.7019 10.7453 14.1135C10.6993 14.5252 10.3282 14.8215 9.91655 14.7754C7.20426 14.4717 4.5475 13.4982 2.19639 11.889C1.85458 11.655 1.76714 11.1883 2.00109 10.8465Z" fill="#7F879E"/>
</svg>
