<svg width="23" height="23" viewBox="0 0 23 23" fill="none" xmlns="http://www.w3.org/2000/svg">
<path d="M11.1328 2.65381C6.07281 2.65381 1.96614 6.76048 1.96614 11.8205C1.96614 16.8805 6.07281 20.9871 11.1328 20.9871C16.1928 20.9871 20.2995 16.8805 20.2995 11.8205C20.2995 6.76048 16.1928 2.65381 11.1328 2.65381ZM6.41197 9.47381C6.79697 8.58464 7.52114 7.89714 8.52031 7.58548V6.85214C8.52031 6.47631 8.83197 6.16464 9.20781 6.16464C9.58364 6.16464 9.89531 6.47631 9.89531 6.85214V7.39298H12.3795V6.85214C12.3795 6.47631 12.6911 6.16464 13.067 6.16464C13.4428 6.16464 13.7545 6.47631 13.7545 6.85214V7.57631C14.7536 7.88798 15.4778 8.57548 15.8628 9.46464C15.9911 9.76714 15.7711 10.1155 15.4411 10.1155H6.83364C6.50364 10.1155 6.28364 9.77631 6.41197 9.47381ZM16.1745 13.8096C16.1745 15.8263 14.7995 17.4763 12.5078 17.4763H9.75781C7.46614 17.4763 6.09114 15.8263 6.09114 13.8096V11.4905C6.09114 11.2338 6.29281 11.0321 6.54947 11.0321H15.7161C15.9728 11.0321 16.1745 11.2338 16.1745 11.4905V13.8096Z" fill="#478F6C"/>
</svg>
