<svg width="24" height="24" viewBox="0 0 24 24" fill="none" xmlns="http://www.w3.org/2000/svg">
<path fill-rule="evenodd" clip-rule="evenodd" d="M8 1.25C8.41421 1.25 8.75 1.58579 8.75 2V5C8.75 5.41421 8.41421 5.75 8 5.75C7.58579 5.75 7.25 5.41421 7.25 5V2C7.25 1.58579 7.58579 1.25 8 1.25Z" fill="#7F879E"/>
<path fill-rule="evenodd" clip-rule="evenodd" d="M16 1.25C16.4142 1.25 16.75 1.58579 16.75 2V5C16.75 5.41421 16.4142 5.75 16 5.75C15.5858 5.75 15.25 5.41421 15.25 5V2C15.25 1.58579 15.5858 1.25 16 1.25Z" fill="#7F879E"/>
<path fill-rule="evenodd" clip-rule="evenodd" d="M7.95728 2.75122C7.9715 2.75041 7.98575 2.75 8 2.75H16C16.0135 2.75 16.027 2.75036 16.0405 2.75109C17.7683 2.84449 19.2706 3.22623 20.3065 4.37861C21.3291 5.51622 21.75 7.24345 21.75 9.65V15.83C21.75 17.9008 21.5117 19.6968 20.4466 20.9506C19.3544 22.2362 17.57 22.76 15 22.76H9C6.42996 22.76 4.64561 22.2362 3.55341 20.9506C2.48827 19.6968 2.25 17.9008 2.25 15.83V9.65C2.25 7.24339 2.67087 5.51842 3.69382 4.38198C4.72938 3.23153 6.23109 2.84971 7.95728 2.75122ZM8.02167 4.25C6.43017 4.34331 5.43785 4.68654 4.80868 5.38551C4.16413 6.10158 3.75 7.35661 3.75 9.65V15.83C3.75 17.8792 4.01173 19.1732 4.69659 19.9794C5.35439 20.7538 6.57004 21.26 9 21.26H15C17.43 21.26 18.6456 20.7538 19.3034 19.9794C19.9883 19.1732 20.25 17.8792 20.25 15.83V9.65C20.25 7.35655 19.8359 6.09878 19.191 5.38139C18.562 4.68169 17.57 4.33837 15.9795 4.25H8.02167Z" fill="#7F879E"/>
<path fill-rule="evenodd" clip-rule="evenodd" d="M2.5 17.6001C2.5 17.1859 2.83579 16.8501 3.25 16.8501H20.75C21.1642 16.8501 21.5 17.1859 21.5 17.6001C21.5 18.0143 21.1642 18.3501 20.75 18.3501H3.25C2.83579 18.3501 2.5 18.0143 2.5 17.6001Z" fill="#7F879E"/>
<path d="M12 8.25C10.77 8.25 9.73 8.92 9.73 10.22C9.73 10.84 10.02 11.31 10.46 11.61C9.85 11.97 9.5 12.55 9.5 13.23C9.5 14.47 10.45 15.24 12 15.24C13.54 15.24 14.5 14.47 14.5 13.23C14.5 12.55 14.15 11.96 13.53 11.61C13.98 11.3 14.26 10.84 14.26 10.22C14.26 8.92 13.23 8.25 12 8.25ZM12 11.09C11.48 11.09 11.1 10.78 11.1 10.29C11.1 9.79 11.48 9.5 12 9.5C12.52 9.5 12.9 9.79 12.9 10.29C12.9 10.78 12.52 11.09 12 11.09ZM12 14C11.34 14 10.86 13.67 10.86 13.07C10.86 12.47 11.34 12.15 12 12.15C12.66 12.15 13.14 12.48 13.14 13.07C13.14 13.67 12.66 14 12 14Z" fill="#7F879E"/>
</svg>
