<svg width="16" height="17" viewBox="0 0 16 17" fill="none" xmlns="http://www.w3.org/2000/svg">
<g clip-path="url(#clip0_511_29849)">
<path d="M2.62462 15.9024C1.64101 15.9024 0.788551 15.05 0.788551 14.0663V11.7057C0.788551 10.6565 1.64101 9.86963 2.62462 9.86963C3.6738 9.86963 4.46068 10.7221 4.46068 11.7057V14.0663C4.46068 15.05 3.6738 15.9024 2.62462 15.9024Z" fill="#1F8FFF"/>
<path d="M8.00167 15.9023C6.95249 15.9023 6.1656 15.0498 6.1656 14.0662V8.099C6.1656 7.04982 7.01806 6.26294 8.00167 6.26294C9.05085 6.26294 9.83773 7.1154 9.83773 8.099V14.0662C9.83773 15.0498 9.05085 15.9023 8.00167 15.9023Z" fill="#1F8FFF"/>
<path d="M13.3787 15.9023C12.3295 15.9023 11.5427 15.0498 11.5427 14.0662V3.31214C11.5427 2.26296 12.3951 1.47607 13.3787 1.47607C14.3623 1.47607 15.2148 2.32853 15.2148 3.31214V14.0662C15.2148 15.0498 14.3623 15.9023 13.3787 15.9023Z" fill="#1F8FFF"/>
</g>
<defs>
<clipPath id="clip0_511_29849">
<rect width="15.7377" height="15.7377" fill="white" transform="translate(0.132812 0.820312)"/>
</clipPath>
</defs>
</svg>
