<svg width="24" height="24" viewBox="0 0 24 24" fill="none" xmlns="http://www.w3.org/2000/svg">
<path fill-rule="evenodd" clip-rule="evenodd" d="M1.25 12C1.25 6.08579 6.08579 1.25 12 1.25C17.9142 1.25 22.75 6.08579 22.75 12C22.75 17.9142 17.9142 22.75 12 22.75C6.08579 22.75 1.25 17.9142 1.25 12ZM12 2.75C6.91421 2.75 2.75 6.91421 2.75 12C2.75 17.0858 6.91421 21.25 12 21.25C17.0858 21.25 21.25 17.0858 21.25 12C21.25 6.91421 17.0858 2.75 12 2.75Z" fill="#7F879E"/>
<path fill-rule="evenodd" clip-rule="evenodd" d="M16.75 10.456L16.75 10.5001C16.75 13.9343 13.9342 16.7501 10.5 16.7501L10.4569 16.7501C9.86874 16.7501 9.36515 16.7501 8.97187 16.7064C8.57454 16.6623 8.12429 16.56 7.78217 16.2179C7.44005 15.8758 7.3378 15.4255 7.29365 15.0282C7.24995 14.6349 7.24998 14.1313 7.25 13.5432L7.25 13.5001C7.25 10.0667 10.0549 7.25006 13.5 7.25006C13.5713 7.25006 13.6414 7.24998 13.7103 7.24991C14.2222 7.24932 14.666 7.24882 15.0157 7.28179C15.4043 7.31843 15.8609 7.40755 16.2096 7.74574C16.5609 8.08638 16.6627 8.54271 16.7064 8.9408C16.7501 9.33723 16.75 9.84985 16.75 10.456ZM13.7017 8.74998C13.6371 8.75002 13.5699 8.75006 13.5 8.75006C10.8851 8.75006 8.75 10.8934 8.75 13.5001C8.75 14.1434 8.75112 14.5623 8.78448 14.8626C8.805 15.0473 8.83283 15.1272 8.84512 15.1549C8.8729 15.1672 8.95279 15.1951 9.13751 15.2156C9.43778 15.249 9.85668 15.2501 10.5 15.2501C13.1058 15.2501 15.25 13.1059 15.25 10.5001C15.25 9.83761 15.2489 9.40904 15.2154 9.10481C15.1972 8.93905 15.1733 8.85914 15.1607 8.82629C15.1276 8.81431 15.046 8.79129 14.8749 8.77517C14.6015 8.74939 14.238 8.74963 13.7017 8.74998Z" fill="#7F879E"/>
</svg>
