<svg width="24" height="24" viewBox="0 0 24 24" fill="none" xmlns="http://www.w3.org/2000/svg">
<path fill-rule="evenodd" clip-rule="evenodd" d="M11.0751 4.25738C10.2847 4.89874 9.7926 5.9363 9.64724 7.62434C9.61171 8.03702 9.24835 8.34276 8.83566 8.30722C8.42298 8.27169 8.11724 7.90833 8.15277 7.49564C8.31741 5.58368 8.90536 4.08624 10.1299 3.0926C11.3338 2.11574 13.0163 1.73999 15.11 1.73999H15.24C17.5492 1.73999 19.361 2.19778 20.5766 3.41341C21.7922 4.62904 22.25 6.44081 22.25 8.74999V15.27C22.25 17.5792 21.7922 19.3909 20.5766 20.6066C19.361 21.8222 17.5492 22.28 15.24 22.28H15.11C13.0315 22.28 11.3592 21.9093 10.1577 20.9481C8.93463 19.9697 8.33891 18.4941 8.16325 16.6096C8.1248 16.1972 8.42797 15.8317 8.84039 15.7932C9.25282 15.7548 9.61832 16.058 9.65677 16.4704C9.8111 18.1259 10.3054 19.1453 11.0948 19.7768C11.9059 20.4257 13.1685 20.78 15.11 20.78H15.24C17.4008 20.78 18.7191 20.3428 19.5159 19.5459C20.3128 18.749 20.75 17.4308 20.75 15.27V8.74999C20.75 6.58917 20.3128 5.27094 19.5159 4.47407C18.7191 3.6772 17.4008 3.23999 15.24 3.23999H15.11C13.1537 3.23999 11.8862 3.59924 11.0751 4.25738Z" fill="#F05817"/>
<path fill-rule="evenodd" clip-rule="evenodd" d="M2.87 12C2.87 11.5858 3.20578 11.25 3.62 11.25H15C15.4142 11.25 15.75 11.5858 15.75 12C15.75 12.4142 15.4142 12.75 15 12.75H3.62C3.20578 12.75 2.87 12.4142 2.87 12Z" fill="#F05817"/>
<path fill-rule="evenodd" clip-rule="evenodd" d="M6.38033 8.11957C6.67322 8.41247 6.67322 8.88734 6.38033 9.18023L3.56066 11.9999L6.38033 14.8196C6.67322 15.1125 6.67322 15.5873 6.38033 15.8802C6.08744 16.1731 5.61256 16.1731 5.31967 15.8802L1.96967 12.5302C1.67678 12.2373 1.67678 11.7625 1.96967 11.4696L5.31967 8.11957C5.61256 7.82668 6.08744 7.82668 6.38033 8.11957Z" fill="#F05817"/>
</svg>
