<svg width="24" height="24" viewBox="0 0 24 24" fill="none" xmlns="http://www.w3.org/2000/svg">
<path fill-rule="evenodd" clip-rule="evenodd" d="M4.03033 4.03033C3.22059 4.84007 2.75 6.11561 2.75 8V13C2.75 15.4353 3.24367 16.6541 3.99388 17.3106C4.76886 17.9887 6.01326 18.25 8 18.25H8.5C8.78282 18.25 9.05796 18.3383 9.27436 18.4455C9.48803 18.5515 9.7297 18.7182 9.90264 18.9535L11.4 20.95C11.6092 21.2289 11.8337 21.31 12 21.31C12.1663 21.31 12.3908 21.2289 12.6 20.95L14.1 18.95L14.1029 18.9462C14.4325 18.5124 14.9521 18.25 15.5 18.25H16C17.8844 18.25 19.1599 17.7794 19.9697 16.9697C20.7794 16.1599 21.25 14.8844 21.25 13V10C21.25 9.58579 21.5858 9.25 22 9.25C22.4142 9.25 22.75 9.58579 22.75 10V13C22.75 15.1156 22.2206 16.8401 21.0303 18.0303C19.8401 19.2206 18.1156 19.75 16 19.75H15.5C15.4284 19.75 15.3486 19.7871 15.2982 19.8524C15.2978 19.8529 15.2975 19.8534 15.2971 19.8538L13.8 21.85C13.3492 22.4511 12.7037 22.81 12 22.81C11.2963 22.81 10.6508 22.4511 10.2 21.85L8.69876 19.8484C8.69654 19.8462 8.69203 19.8422 8.6847 19.8365C8.66662 19.8224 8.64037 19.8054 8.60814 19.7895C8.57598 19.7735 8.54532 19.7622 8.52072 19.7556C8.50625 19.7517 8.49766 19.7504 8.49494 19.75H8C5.98674 19.75 4.23114 19.5113 3.00612 18.4394C1.75633 17.3459 1.25 15.5647 1.25 13V8C1.25 5.88439 1.77941 4.15993 2.96967 2.96967C4.15993 1.77941 5.88439 1.25 8 1.25H14C14.4142 1.25 14.75 1.58579 14.75 2C14.75 2.41421 14.4142 2.75 14 2.75H8C6.11561 2.75 4.84007 3.22059 4.03033 4.03033Z" fill="#7F879E"/>
<path fill-rule="evenodd" clip-rule="evenodd" d="M19.5 2.75C18.5335 2.75 17.75 3.5335 17.75 4.5C17.75 5.4665 18.5335 6.25 19.5 6.25C20.4665 6.25 21.25 5.4665 21.25 4.5C21.25 3.5335 20.4665 2.75 19.5 2.75ZM16.25 4.5C16.25 2.70507 17.7051 1.25 19.5 1.25C21.2949 1.25 22.75 2.70507 22.75 4.5C22.75 6.29493 21.2949 7.75 19.5 7.75C17.7051 7.75 16.25 6.29493 16.25 4.5Z" fill="#7F879E"/>
<path fill-rule="evenodd" clip-rule="evenodd" d="M14.9965 11C14.9965 10.4477 15.4442 10 15.9965 10H16.0054C16.5577 10 17.0054 10.4477 17.0054 11C17.0054 11.5523 16.5577 12 16.0054 12H15.9965C15.4442 12 14.9965 11.5523 14.9965 11Z" fill="#7F879E"/>
<path fill-rule="evenodd" clip-rule="evenodd" d="M10.9955 11C10.9955 10.4477 11.4432 10 11.9955 10H12.0045C12.5568 10 13.0045 10.4477 13.0045 11C13.0045 11.5523 12.5568 12 12.0045 12H11.9955C11.4432 12 10.9955 11.5523 10.9955 11Z" fill="#7F879E"/>
<path fill-rule="evenodd" clip-rule="evenodd" d="M6.99451 11C6.99451 10.4477 7.44222 10 7.99451 10H8.00349C8.55577 10 9.00349 10.4477 9.00349 11C9.00349 11.5523 8.55577 12 8.00349 12H7.99451C7.44222 12 6.99451 11.5523 6.99451 11Z" fill="#7F879E"/>
</svg>
