<svg width="20" height="21" viewBox="0 0 20 21" fill="none" xmlns="http://www.w3.org/2000/svg">
<path d="M15.8333 12.1492C16.75 12.1492 17.5 11.3992 17.5 10.4825C17.5 9.56584 16.75 8.81584 15.8333 8.81584C14.9167 8.81584 14.1667 9.56584 14.1667 10.4825C14.1667 11.3992 14.9167 12.1492 15.8333 12.1492Z" fill="#7F879E"/>
<path d="M4.16666 12.1492C5.08333 12.1492 5.83333 11.3992 5.83333 10.4825C5.83333 9.56584 5.08333 8.81584 4.16666 8.81584C3.25 8.81584 2.5 9.56584 2.5 10.4825C2.5 11.3992 3.25 12.1492 4.16666 12.1492Z" fill="#7F879E"/>
<path d="M10 12.1492C10.9167 12.1492 11.6667 11.3992 11.6667 10.4825C11.6667 9.56584 10.9167 8.81584 10 8.81584C9.08334 8.81584 8.33334 9.56584 8.33334 10.4825C8.33334 11.3992 9.08334 12.1492 10 12.1492Z" fill="#7F879E"/>
</svg>
