<svg width="24" height="25" viewBox="0 0 24 25" fill="none" xmlns="http://www.w3.org/2000/svg">
<path fill-rule="evenodd" clip-rule="evenodd" d="M5.26999 9.63696C5.26999 5.91275 8.29578 2.88696 12.02 2.88696C15.7342 2.88696 18.77 5.92275 18.77 9.63696V12.527C18.77 12.7418 18.8186 13.0563 18.9108 13.3924C19.0018 13.7243 19.1194 14.0193 19.2265 14.2067L20.3731 16.1111C21.2787 17.6203 20.5548 19.5864 18.8865 20.1387C14.4226 21.6298 9.6062 21.6297 5.14233 20.1383L5.13955 20.1374C4.29714 19.8523 3.66538 19.2627 3.38291 18.4999C3.10011 17.7362 3.19632 16.8765 3.65735 16.1103L4.80578 14.2029C4.80604 14.2025 4.80629 14.2021 4.80654 14.2016C4.91605 14.0175 5.036 13.7236 5.12857 13.3901C5.22142 13.0556 5.26999 12.7416 5.26999 12.527V9.63696ZM12.02 4.38696C9.12421 4.38696 6.76999 6.74118 6.76999 9.63696V12.527C6.76999 12.9223 6.68857 13.3783 6.57392 13.7913C6.4592 14.2046 6.29449 14.635 6.0942 14.971L6.09252 14.9738L4.94263 16.8836C4.94259 16.8837 4.94267 16.8836 4.94263 16.8836C4.69378 17.2973 4.67989 17.6828 4.78957 17.979C4.8995 18.2759 5.16234 18.5611 5.6191 18.7161C9.77445 20.1041 14.2571 20.1039 18.4123 18.7156L18.4146 18.7149C19.1653 18.4667 19.5009 17.5737 19.0872 16.8834C19.0871 16.8832 19.0873 16.8836 19.0872 16.8834L17.9302 14.9618C17.7381 14.6289 17.5773 14.2014 17.4642 13.7891C17.3514 13.3776 17.27 12.9221 17.27 12.527V9.63696C17.27 6.75118 14.9058 4.38696 12.02 4.38696Z" fill="#1B2124"/>
<path fill-rule="evenodd" clip-rule="evenodd" d="M9.47171 3.65334C9.87115 2.63406 10.8629 1.91699 12.02 1.91699C13.1771 1.91699 14.1688 2.63406 14.5683 3.65334C14.6726 3.91941 14.6166 4.22162 14.4239 4.43267C14.2312 4.64372 13.9353 4.72693 13.6609 4.64725C13.3835 4.56671 13.1035 4.50594 12.8197 4.47154L12.817 4.4712C11.9526 4.36315 11.1358 4.42728 10.3794 4.64718C10.1049 4.72696 9.80894 4.64381 9.6162 4.43276C9.42345 4.22171 9.36742 3.91945 9.47171 3.65334Z" fill="#1B2124"/>
<path fill-rule="evenodd" clip-rule="evenodd" d="M9.76999 19.7871C9.76999 20.3996 10.0248 20.9713 10.4303 21.3768C10.8358 21.7823 11.4075 22.0371 12.02 22.0371C13.2558 22.0371 14.27 21.0229 14.27 19.7871H15.77C15.77 21.8513 14.0842 23.5371 12.02 23.5371C10.9925 23.5371 10.0441 23.1119 9.36966 22.4374C8.69518 21.763 8.26999 20.8146 8.26999 19.7871H9.76999Z" fill="#1B2124"/>
</svg>
