<svg width="24" height="24" viewBox="0 0 24 24" fill="none" xmlns="http://www.w3.org/2000/svg">
<path fill-rule="evenodd" clip-rule="evenodd" d="M12 6.97998C10.5957 6.97998 9.46997 8.1127 9.46997 9.50998C9.46997 10.8588 10.5236 11.9585 11.8586 12.0284C11.9506 12.0209 12.0487 12.0202 12.1439 12.0282C13.4732 11.9572 14.5212 10.8618 14.53 9.50786C14.5288 8.11305 13.3951 6.97998 12 6.97998ZM7.96997 9.50998C7.96997 7.28726 9.76427 5.47998 12 5.47998C14.2242 5.47998 16.03 7.28577 16.03 9.50998V9.51422H16.03C16.0177 11.6826 14.3122 13.4557 12.1455 13.5295C12.1015 13.531 12.0575 13.5287 12.0139 13.5224C12.0182 13.5231 12.0191 13.523 12.0163 13.5228C12.0137 13.5227 12.0094 13.5225 12.0037 13.5225C11.9914 13.5225 11.9801 13.5233 11.973 13.5242C11.9337 13.5291 11.894 13.5309 11.8544 13.5295C9.69158 13.4558 7.96997 11.6854 7.96997 9.50998Z" fill="#7F879E"/>
<path fill-rule="evenodd" clip-rule="evenodd" d="M7.44686 17.4236C6.67666 17.9423 6.24615 18.5359 6.07839 19.1001C7.68458 20.4451 9.74374 21.2501 12 21.2501C14.2563 21.2501 16.3154 20.4451 17.9216 19.1001C17.7538 18.5357 17.323 17.9418 16.5521 17.4228C15.3419 16.6134 13.6963 16.1851 12.0075 16.1851C10.3195 16.1851 8.66811 16.613 7.44686 17.4236ZM12.0075 14.6851C13.9234 14.6851 15.8774 15.1666 17.3871 16.1767L17.3887 16.1778C18.5914 16.9871 19.3565 18.0855 19.4858 19.3007C19.511 19.5376 19.4222 19.7723 19.2465 19.9332C17.3338 21.6847 14.7949 22.7501 12 22.7501C9.20512 22.7501 6.66625 21.6847 4.7535 19.9332C4.57784 19.7723 4.48903 19.5376 4.51422 19.3007C4.6435 18.0855 5.40865 16.9871 6.61131 16.1778L6.61504 16.1753L6.61504 16.1753C8.1336 15.1666 10.0914 14.6851 12.0075 14.6851Z" fill="#7F879E"/>
<path fill-rule="evenodd" clip-rule="evenodd" d="M12 2.75C6.89137 2.75 2.75 6.89137 2.75 12C2.75 17.1086 6.89137 21.25 12 21.25C17.1086 21.25 21.25 17.1086 21.25 12C21.25 6.89137 17.1086 2.75 12 2.75ZM1.25 12C1.25 6.06294 6.06294 1.25 12 1.25C17.9371 1.25 22.75 6.06294 22.75 12C22.75 17.9371 17.9371 22.75 12 22.75C6.06294 22.75 1.25 17.9371 1.25 12Z" fill="#7F879E"/>
</svg>
