<svg width="23" height="22" viewBox="0 0 23 22" fill="none" xmlns="http://www.w3.org/2000/svg">
<path fill-rule="evenodd" clip-rule="evenodd" d="M11.2617 8.67334C10.0191 8.67334 9.01172 9.6807 9.01172 10.9233C9.01172 12.166 10.0191 13.1733 11.2617 13.1733C12.5044 13.1733 13.5117 12.166 13.5117 10.9233C13.5117 9.6807 12.5044 8.67334 11.2617 8.67334ZM7.51172 10.9233C7.51172 8.85227 9.19065 7.17334 11.2617 7.17334C13.3328 7.17334 15.0117 8.85227 15.0117 10.9233C15.0117 12.9944 13.3328 14.6733 11.2617 14.6733C9.19065 14.6733 7.51172 12.9944 7.51172 10.9233Z" fill="#1B2124"/>
<path fill-rule="evenodd" clip-rule="evenodd" d="M8.86519 2.6934C8.59752 2.24745 8.03381 2.10873 7.61519 2.35778L7.60428 2.36427L5.87423 3.35418C5.32686 3.66696 5.13801 4.37611 5.45112 4.91802L4.80172 5.29323L5.4506 4.91713C5.98566 5.84026 6.12951 6.85204 5.65154 7.68145C5.17364 8.51075 4.22651 8.89323 3.16172 8.89323C2.5285 8.89323 2.01172 9.41487 2.01172 10.0432V11.8032C2.01172 12.4316 2.5285 12.9532 3.16172 12.9532C4.22651 12.9532 5.17364 13.3357 5.65154 14.165C6.12945 14.9943 5.9857 16.0059 5.45081 16.929C5.13814 17.4708 5.32663 18.1794 5.87382 18.492L7.61524 19.4886C8.03386 19.7376 8.59749 19.599 8.86517 19.1531L8.97265 18.9675C9.50752 18.0446 10.3138 17.4157 11.2705 17.4157C12.2279 17.4157 13.0317 18.0451 13.5617 18.969C13.5619 18.9694 13.5622 18.9698 13.5624 18.9702L13.6682 19.1531C13.9359 19.599 14.4996 19.7377 14.9183 19.4887L14.9292 19.4822L16.6592 18.4923C17.2051 18.1803 17.3969 17.481 17.0815 16.927C16.5475 16.0045 16.4043 14.9937 16.8819 14.165C17.3598 13.3357 18.3069 12.9532 19.3717 12.9532C20.0049 12.9532 20.5217 12.4316 20.5217 11.8032V10.0432C20.5217 9.41001 20.0001 8.89323 19.3717 8.89323C18.3069 8.89323 17.3598 8.51075 16.8819 7.68145C16.404 6.8522 16.5477 5.84065 17.0825 4.91767C17.3953 4.3758 17.2069 3.66713 16.6596 3.35441L14.9182 2.35788C14.4996 2.10882 13.9359 2.24745 13.6682 2.6934L13.5608 2.87901C13.0259 3.80181 12.2197 4.43073 11.263 4.43073C10.3056 4.43073 9.50193 3.80147 8.97193 2.87777C8.97163 2.87725 8.97134 2.87674 8.97105 2.87623L8.86519 2.6934ZM6.8542 1.06514C8.01363 0.379779 9.48429 0.800255 10.1563 1.92976L10.1608 1.93743L10.2708 2.12745L10.2724 2.13023C10.6424 2.77569 11.0283 2.93073 11.263 2.93073C11.4987 2.93073 11.8876 2.77437 12.2626 2.12745C12.2627 2.12734 12.2626 2.12756 12.2626 2.12745L12.3771 1.92973C13.0491 0.800223 14.5198 0.379776 15.6793 1.06515L17.4038 2.05205C18.6765 2.77926 19.108 4.41035 18.3811 5.66844L18.3806 5.66933C18.0057 6.3162 18.0645 6.72942 18.1815 6.9325C18.2986 7.13571 18.6265 7.39323 19.3717 7.39323C20.8234 7.39323 22.0217 8.57645 22.0217 10.0432V11.8032C22.0217 13.2549 20.8385 14.4532 19.3717 14.4532C18.6265 14.4532 18.2986 14.7107 18.1815 14.914C18.0645 15.117 18.0057 15.5303 18.3806 16.1771L18.3829 16.1811C19.1061 17.4467 18.6774 19.0663 17.4042 19.7942C17.4041 19.7943 17.4044 19.7941 17.4042 19.7942L15.6792 20.7814C14.5197 21.4667 13.0491 21.0462 12.3772 19.9167L12.3726 19.909L12.2626 19.719L12.261 19.7162C11.891 19.0708 11.5051 18.9157 11.2705 18.9157C11.0347 18.9157 10.6459 19.0721 10.2708 19.719C10.2707 19.7191 10.2709 19.7189 10.2708 19.719L10.1563 19.9167C9.48435 21.0462 8.0137 21.4667 6.85429 20.7814L5.12961 19.7944C5.12948 19.7943 5.12975 19.7945 5.12961 19.7944C3.8573 19.0671 3.4255 17.436 4.15232 16.178L4.15284 16.1771C4.52777 15.5303 4.46893 15.117 4.3519 14.914C4.23479 14.7107 3.90693 14.4532 3.16172 14.4532C1.69494 14.4532 0.511719 13.2549 0.511719 11.8032V10.0432C0.511719 8.59158 1.69494 7.39323 3.16172 7.39323C3.90693 7.39323 4.23479 7.13571 4.3519 6.93251C4.46893 6.72942 4.52777 6.3162 4.15284 5.66933L4.15232 5.66844C3.4255 4.41048 3.8569 2.77961 5.12921 2.05228L6.8542 1.06514Z" fill="#1B2124"/>
</svg>
